<?xml version="1.0" encoding="UTF-8"?>
<svg id="Layer_1" data-name="Layer 1" xmlns="http://www.w3.org/2000/svg" viewBox="0 0 471.4 80.3">
  <defs>
    <style>
      .cls-1 {
        fill: #7c5a38;
        stroke-width: 0px;
      }
    </style>
  </defs>
  <path class="cls-1" d="m60,79h15v-34.6c0-10.4-5.9-15.9-15.8-15.9-6.9,0-12.9,3.8-15.8,8.9h-.4c-1.9-5.9-6.6-8.9-13.8-8.9-6.2,0-11,2.9-14,8.3h-.4l.2-7H0v49.2h15v-28.7c0-6.3,4.3-9.3,8.5-9.3s6.5,1.9,6.5,6.7v31.3h15v-28.7c0-6.3,4.3-9.3,8.5-9.3s6.5,1.9,6.5,6.7v31.3Zm130.7,0h15v-33.2c0-11.7-7.4-17.3-17.9-17.3-7.3,0-12.5,3.1-15.8,8.3h-.4l.2-7.8V0h-15v79h15v-27c0-7,4.7-11,10.5-11,4.8,0,8.2,2,8.4,8.2v29.8Zm111.8-49.2h-15v49.2h15v-26c0-7.5,5.1-10.6,10.2-10.6,2.7,0,4.4.3,5.9,1.1v-14.4c-1.1-.4-2.6-.6-4.3-.6-4.9,0-9.3,2.8-11.6,8h-.4l.2-6.7h0Zm-175.1,0l.2,8h-.4c-2.7-6-8.7-9.3-17.3-9.3-13.4,0-23.8,10.8-23.8,25.9s10.4,25.9,23.8,25.9c8.6,0,14.6-3.3,17.3-9.3h.4l-.2,8h15V29.8h-15Zm-26.2,24.6c0-8.3,5.8-13.3,13.2-13.3s13.1,5,13.1,13.3-5.6,13.3-13.1,13.3-13.2-5-13.2-13.3h0Zm156.9-24.6l.2,8h-.4c-2.7-6-8.7-9.3-17.3-9.3-13.4,0-23.8,10.8-23.8,25.9s10.4,25.9,23.8,25.9c8.6,0,14.6-3.3,17.3-9.3h.4l-.2,8h15V29.8s-15,0-15,0Zm-26.2,24.6c0-8.3,5.8-13.3,13.2-13.3s13.1,5,13.1,13.3-5.6,13.3-13.1,13.3-13.2-5-13.2-13.3h0Zm135.1-24.6l.2,8h-.4c-2.7-6-8.7-9.3-17.3-9.3-13.4,0-23.8,10.8-23.8,25.9s10.4,25.9,23.8,25.9c8.6,0,14.6-3.3,17.3-9.3h.4l-.2,8h15V29.8s-15,0-15,0Zm-26.2,24.6c0-8.3,5.8-13.3,13.2-13.3s13.1,5,13.1,13.3-5.6,13.3-13.1,13.3-13.2-5-13.2-13.3h0Zm115.6,24.6h15v-34.6c0-10.4-5.9-15.9-15.8-15.9-6.9,0-12.9,3.8-15.8,8.9h-.4c-1.9-5.9-6.6-8.9-13.8-8.9-6.2,0-11,2.9-14,8.3h-.4l.2-7h-15v49.2h15v-28.7c0-6.3,4.3-9.3,8.5-9.3s6.5,1.9,6.5,6.7v31.3h15v-28.7c0-6.3,4.3-9.3,8.5-9.3s6.5,1.9,6.5,6.7v31.3h0Z"/>
</svg>